<svg width="1920" height="176" viewBox="0 0 1920 176" fill="none" xmlns="http://www.w3.org/2000/svg">
<path d="M-14.4 187.95C51.4 187.95 64.35 171.85 64.35 136.85V4.89996H135.4V137.2C135.4 205.8 100.75 248.85 -11.95 248.85C-47.65 248.85 -81.95 243.95 -108.55 235.2L-92.45 177.45C-69 184.45 -37.5 187.95 -14.4 187.95ZM232.719 187.95C298.519 187.95 311.469 171.85 311.469 136.85V4.89996H382.519V137.2C382.519 205.8 347.869 248.85 235.169 248.85C199.469 248.85 165.169 243.95 138.569 235.2L154.669 177.45C178.119 184.45 209.619 187.95 232.719 187.95ZM487.886 243.6H416.836V4.89996H487.886V243.6ZM596.577 243.6H525.527V4.89996H606.727L811.827 166.25V4.89996H882.877V243.6H803.427L596.577 79.45V243.6ZM1239.14 243.6H920.644V4.89996H1239.14V60.55H991.694V100.1H1232.49V145.95H991.694V187.95H1239.14V243.6ZM1344.43 243.6H1273.38V4.89996H1359.83L1502.63 185.15L1645.08 4.89996H1730.13V243.6H1659.08V89.25L1537.63 243.6H1465.88L1344.43 89.25V243.6ZM1956.96 248.5C1820.11 248.5 1760.96 209.65 1760.96 124.25C1760.96 38.85 1820.11 -3.82662e-05 1956.96 -3.82662e-05C2093.81 -3.82662e-05 2152.96 38.85 2152.96 124.25C2152.96 209.65 2093.81 248.5 1956.96 248.5ZM1956.96 187.6C2052.51 187.6 2080.51 170.45 2080.51 124.25C2080.51 78.05 2052.51 60.9 1956.96 60.9C1861.06 60.9 1832.01 78.05 1832.01 124.25C1832.01 170.45 1861.06 187.6 1956.96 187.6Z" fill="black"/>
</svg>

