<svg width="57" height="32" viewBox="0 0 57 32" fill="none" xmlns="http://www.w3.org/2000/svg">
<path d="M14.6052 22.0701C14.224 22.2473 13.6055 22.2476 11.2338 21.7203C9.83903 21.4102 7.44531 20.9454 5.99297 20.6031C3.44005 20.0013 2.92888 19.3794 2.37811 18.7752C1.90384 18.2549 1.47257 16.63 1.12794 15.2255C0.909695 14.3361 1.00158 13.4791 1.17329 12.4142C1.30147 11.6193 1.64125 10.3309 1.91109 9.39885C2.34034 7.91617 2.76666 7.16027 3.07799 6.65806C3.44927 6.05916 4.23161 5.20534 5.57544 4.04214C6.34248 3.3782 7.43984 2.7589 8.26248 2.30569C9.605 1.56605 10.5374 1.32649 11.4345 1.17003C12.8002 0.931861 14.063 0.987656 14.9023 1.07502C15.7514 1.16341 16.6731 1.52194 17.6628 1.86719C19.519 2.51467 20.679 3.21899 21.2708 3.68714C22.0147 4.27549 22.6754 6.01725 23.2329 7.52752C23.4873 8.21647 23.4931 8.90981 23.4989 10.0445C23.5104 12.2763 23.4211 13.8702 23.3793 14.2009C23.3494 14.5316 23.3017 14.8531 23.2301 15.1308C23.1941 15.2562 23.1586 15.35 22.871 15.5524" stroke="black" stroke-width="2" stroke-linecap="round"/>
<path d="M23.0586 15.3507C23.2202 15.2412 23.7615 14.8972 24.6351 14.706C25.1667 14.5897 25.9093 14.8186 26.7365 15.2745C27.0513 15.451 27.3028 15.6097 27.5086 15.7554C27.607 15.8168 27.693 15.8529 27.9115 15.9996" stroke="black" stroke-width="2" stroke-linecap="round"/>
<path d="M28.1098 16.1881C28.1098 16.165 28.0499 15.8431 27.9591 14.9735C27.8179 13.6206 28.0222 12.1873 28.2087 11.0973C28.3536 10.2505 28.5638 9.67485 28.885 8.9886C29.963 6.68561 30.8482 5.76647 31.4176 5.0854C31.9925 4.39768 32.679 3.76617 33.3028 3.32248C34.0017 2.82541 35.1441 2.71623 37.4576 2.78153C38.6117 2.81411 39.4864 3.10294 40.8387 3.4711C41.9621 3.77695 42.8744 4.3344 43.6484 4.71517C44.3741 5.07223 44.9236 5.41728 45.3912 5.74052C46.0829 6.2187 47.1258 7.06406 47.6295 7.47904C48.3114 8.04089 48.7189 8.71015 49.3648 9.65396C49.791 10.2768 50.1073 10.898 50.4969 11.6527C51 12.6268 51.1143 13.1571 51.2165 13.7773C51.4473 15.1786 51.1018 15.7935 50.9989 16.2843C50.9058 16.728 50.6429 17.1991 50.3039 17.6835C49.9031 18.2564 49.1465 18.765 47.6865 19.585C46.0854 20.4842 45.4864 20.5452 44.2547 20.675C43.8284 20.7122 43.3332 20.763 42.8012 20.8007C42.2692 20.8383 41.7153 20.8611 41.1446 20.8496" stroke="black" stroke-width="2" stroke-linecap="round"/>
<path d="M15.2736 22.4115C15.2265 22.5602 15.0368 22.9974 14.9707 23.43C14.9308 23.6907 14.8578 24.0007 14.7869 24.8286C14.5167 27.9806 14.795 28.5874 15.0301 28.9514C15.2606 29.3083 16.143 29.315 16.8736 29.4705C18.154 29.743 18.6725 29.9148 19.2964 29.9497C19.5568 29.9643 20.7106 30.0073 22.3848 30.0186C24.0447 30.0297 25.5266 30.2257 26.2201 30.295C26.6436 30.3373 27.533 30.4332 28.7875 30.5331C29.88 30.6201 30.7217 30.7349 31.3157 30.7866C31.7682 30.826 33.0862 30.9307 34.8549 30.9941C35.6106 31.0212 36.0801 30.9653 36.7023 30.6252C38.3033 29.7499 37.4704 28.4886 37.5704 27.8086C37.7487 26.5963 37.8817 25.8264 38.1278 24.8392C38.6696 22.8557 38.7757 22.4707 38.8166 22.2268C38.8459 22.0868 38.8925 21.9137 38.9404 21.7354" stroke="black" stroke-width="2" stroke-linecap="round"/>
<path d="M41.1473 20.8882C41.0347 20.8882 40.7428 20.854 40.2922 20.8533C39.9783 20.8528 39.7965 21.1253 39.5804 21.28C39.5047 21.2974 39.403 21.2974 39.3078 21.2889C39.2126 21.2803 39.127 21.2632 38.9414 21.1938" stroke="black" stroke-width="2" stroke-linecap="round"/>
<path d="M38.8252 28.4066C39.3682 28.7369 40.4893 29.1253 44.327 29.0282C46.3996 28.9757 47.9171 27.8864 48.8623 27.0752C49.2724 26.7232 49.6062 26.2785 50.0527 25.9719C50.7508 25.4925 51.7578 25.9648 54.273 26.9196C54.794 27.1083 54.9442 27.1494 55.1117 27.2185C55.2792 27.2876 55.4594 27.3835 55.7817 27.7312" stroke="black" stroke-width="2" stroke-linecap="round"/>
</svg>