<svg width="206" height="125" viewBox="0 0 206 125" fill="none" xmlns="http://www.w3.org/2000/svg">
<path d="M85.8252 41.4533C86.4086 41.0578 88.3636 39.8155 91.5184 39.1251C93.4383 38.705 96.1199 39.5319 99.1071 41.1782C100.244 41.8156 101.152 42.3885 101.895 42.9147C102.251 43.1366 102.561 43.267 103.35 43.7964" stroke="black" stroke-width="4" stroke-linecap="round"/>
<path d="M142.764 88.6011C144.725 89.7939 148.773 91.1966 162.632 90.8458C170.117 90.6563 175.597 86.7226 179.01 83.7932C180.491 82.5219 181.697 80.916 183.309 79.8087C185.83 78.0775 189.467 79.7833 198.55 83.2311C200.431 83.9128 200.973 84.0612 201.578 84.3107C202.183 84.5602 202.834 84.9064 203.998 86.1622" stroke="black" stroke-width="4" stroke-linecap="round"/>
<path d="M55.8364 64.5303C55.6673 64.7532 55.0168 65.5926 53.6419 67.3314C51.8117 69.6461 50.0824 71.9629 48.7016 74.4615C46.8824 77.7536 45.8145 81.7447 45.132 85.5913C44.4475 89.4485 44.7561 92.1444 44.9799 93.7983C45.3044 96.1965 46.3269 99.2836 47.7295 102.612C49.1208 105.913 51.9756 108.912 54.8692 111.779C57.1843 114.072 58.94 114.977 59.8795 115.539C61.0951 116.265 63.5711 117.253 66.6349 118.378C68.8211 119.181 71.1748 119.538 73.7319 119.973C77.1856 120.562 81.0687 120.859 84.2524 121.256C88.7908 121.821 91.2396 122.183 94.3105 122.383C98.7391 122.67 101.981 122.637 102.557 122.594C104.704 122.435 108.362 121.898 112.721 121.117C115.037 120.702 118.256 119.796 120.712 119.038C122.188 118.583 123.26 118.029 124.737 116.949C126.02 116.01 127.816 114.364 129.284 112.852C130.795 111.295 131.732 109.923 132.774 108.57C134.754 106 135.281 104.912 136.462 103.009C137.48 101.37 137.9 100.444 138.295 99.4899C138.803 98.263 139.167 97.058 139.941 93.3979C140.331 91.5493 140.239 88.1707 140.295 83.8371C140.354 79.2417 140.52 77.5403 140.703 76.2405C140.857 75.1472 140.942 73.8948 141.139 72.6269C141.357 71.2204 141.449 69.9094 141.492 68.6002C141.533 68.0312 141.562 66.5866 141.576 64.6669C141.59 63.9306 141.618 63.677 141.646 62.8181" stroke="black" stroke-width="4" stroke-linecap="round"/>
<path d="M104.014 40.4877C104.66 39.2103 105.638 37.4465 107.009 35.2407C108.394 33.0117 112.197 28.9326 118.4 22.792C121.619 19.6061 125.443 16.6802 129.048 13.9617C135.916 8.78223 140.316 5.76783 141.712 4.35266C142.806 3.24429 143.398 2.32588 144.047 2.06222C145.145 1.61649 146.514 3.66986 150.482 5.76748C153.588 7.40961 159.037 10.0233 162.59 11.9431C167.8 14.7587 171.154 17.1081 175.047 19.0113C182.782 22.7923 188.602 23.074 190.652 24.7715C191.154 25.1869 191.121 25.79 190.935 26.3241C190.524 27.5008 189.381 28.349 187.466 29.7447C183.566 32.5875 177.942 35.5704 173.39 37.9725C169.907 39.81 164.328 43.0639 157.588 46.4404C153.697 48.39 151.646 50.7372 148.47 54.898C144.477 59.3791 143.769 60.7831 143.464 61.6746C143.298 62.1028 143.112 62.4819 142.637 62.8724" stroke="black" stroke-width="4" stroke-linecap="round"/>
<path d="M66.6699 5.57349C67.3708 7.85122 68.0716 10.129 70.0752 14.6313C72.0789 19.1337 75.3641 25.7917 77.1441 29.5282C79.6669 34.824 79.5426 36.9335 80.272 38.5748C80.8222 39.2378 81.4009 39.9041 81.9743 40.5227C82.2849 40.7908 82.6353 40.966 83.2618 41.1465" stroke="black" stroke-width="4" stroke-linecap="round"/>
<path d="M65.3046 3.55862C64.3725 3.50049 63.4404 3.44235 56.5047 4.26831C49.5691 5.09426 36.6581 6.80606 28.8898 8.06167C14.071 10.4569 9.1341 14.5465 5.65853 16.2881C4.05236 17.093 2.73076 17.4547 2.10047 18.0036C1.35154 18.6558 4.80214 22.9401 9.43083 29.2135C13.4585 34.6723 19.96 39.2249 26.2257 43.3171C31.1764 46.5506 34.6296 49.3941 38.2942 52.6221C46.5184 59.8664 48.6733 60.9678 50.63 62.2755C51.1599 62.597 51.7131 62.8845 52.2439 63.2051C52.7747 63.5258 53.2664 63.8708 54.8906 64.4005" stroke="black" stroke-width="4" stroke-linecap="round"/>
<path d="M94.8184 102.059L92.1816 99.4812L106.42 85.3015H70.7949V81.6101H106.42L92.1816 67.3718L94.8184 64.7937L113.393 83.4265L94.8184 102.059Z" fill="black"/>
</svg>

