<svg width="193" height="131" viewBox="0 0 193 131" fill="none" xmlns="http://www.w3.org/2000/svg">
<path d="M48.9176 74.6602C47.603 75.2714 45.4699 75.2724 37.2912 73.4539C32.4814 72.3844 24.2266 70.7817 19.2182 69.6012C10.4145 67.526 8.65175 65.3812 6.75242 63.2977C5.1169 61.5035 3.62966 55.8999 2.44121 51.0567C1.68858 47.9896 2.00545 45.0343 2.59759 41.3619C3.03962 38.6205 4.21134 34.1777 5.1419 30.9634C6.62215 25.8504 8.09233 23.2437 9.16596 21.5118C10.4463 19.4465 13.1442 16.5021 17.7784 12.4908C20.4235 10.2012 24.2078 8.06556 27.0446 6.50265C31.6743 3.95201 34.8896 3.12588 37.9833 2.58635C42.6929 1.76502 47.0476 1.95743 49.9419 2.25871C52.87 2.56351 56.0486 3.79992 59.4617 4.99049C65.8626 7.22333 69.863 9.65218 71.904 11.2666C74.469 13.2955 76.7474 19.302 78.6703 24.5101C79.5474 26.886 79.5674 29.277 79.5875 33.1898C79.6271 40.8864 79.319 46.3829 79.175 47.5233C79.0717 48.6637 78.9072 49.7723 78.6605 50.7301C78.5362 51.1625 78.4138 51.4859 77.4219 52.1839" stroke="black" stroke-width="4" stroke-linecap="round"/>
<path d="M78.0684 51.4892C78.6255 51.1116 80.4923 49.9253 83.5049 49.266C85.3383 48.8648 87.8991 49.6544 90.7516 51.2265C91.8373 51.8352 92.7044 52.3823 93.4143 52.8848C93.7535 53.0967 94.0501 53.2212 94.8037 53.7268" stroke="black" stroke-width="4" stroke-linecap="round"/>
<path d="M95.6832 54.4023C95.6832 54.3222 95.4777 53.2051 95.1663 50.1871C94.6818 45.4915 95.3825 40.5169 96.0223 36.7339C96.5193 33.7948 97.2405 31.797 98.3425 29.4152C102.041 21.4223 105.078 18.2322 107.031 15.8684C109.003 13.4816 111.359 11.2898 113.499 9.7499C115.896 8.02473 119.815 7.64579 127.752 7.87243C131.712 7.9855 134.712 8.98794 139.352 10.2657C143.206 11.3272 146.336 13.2619 148.991 14.5835C151.48 15.8227 153.366 17.0203 154.97 18.1422C157.343 19.8018 160.921 22.7358 162.649 24.176C164.988 26.126 166.386 28.4488 168.602 31.7245C170.064 33.8862 171.149 36.0423 172.486 38.6613C174.212 42.0424 174.604 43.8827 174.954 46.0353C175.746 50.8986 174.561 53.0328 174.208 54.7362C173.889 56.2764 172.987 57.9112 171.824 59.5925C170.449 61.5808 167.853 63.346 162.844 66.1919C157.352 69.3128 155.296 69.5246 151.071 69.975C149.608 70.1041 147.91 70.2806 146.084 70.4111C144.259 70.5417 142.359 70.6208 140.401 70.5811" stroke="black" stroke-width="4" stroke-linecap="round"/>
<path d="M132.442 96.5121C134.315 97.6512 138.181 98.9906 151.415 98.6556C158.563 98.4747 163.796 94.7183 167.055 91.9209C168.47 90.7069 169.621 89.1734 171.161 88.116C173.568 86.4629 177.04 88.0918 185.714 91.3842C187.511 92.0351 188.029 92.1768 188.606 92.4151C189.184 92.6533 189.805 92.9839 190.917 94.1831" stroke="black" stroke-width="4" stroke-linecap="round"/>
<path d="M49.4337 73.5266C49.2722 73.7395 48.651 74.5411 47.3381 76.2015C45.5904 78.4119 43.939 80.6242 42.6205 83.0103C40.8833 86.1539 39.8635 89.9651 39.2117 93.6384C38.5581 97.3218 38.8528 99.8962 39.0665 101.476C39.3764 103.766 40.3527 106.714 41.6922 109.892C43.0208 113.044 45.7469 115.908 48.5101 118.645C50.7208 120.836 52.3974 121.7 53.2945 122.236C54.4554 122.929 56.8198 123.873 59.7455 124.947C61.8331 125.714 64.0808 126.055 66.5226 126.471C69.8206 127.033 73.5287 127.317 76.5689 127.695C80.9028 128.235 83.2412 128.581 86.1738 128.772C90.4028 129.046 93.4988 129.014 94.0484 128.973C96.099 128.821 99.5921 128.309 103.754 127.563C105.966 127.166 109.04 126.302 111.385 125.578C112.795 125.143 113.819 124.614 115.229 123.583C116.454 122.686 118.169 121.115 119.571 119.67C121.014 118.183 121.909 116.874 122.904 115.581C124.794 113.127 125.297 112.088 126.426 110.271C127.397 108.706 127.799 107.822 128.176 106.911C128.661 105.739 129.009 104.588 129.747 101.093C130.12 99.3279 130.032 96.1015 130.086 91.9632C130.142 87.575 130.3 85.9503 130.475 84.709C130.622 83.665 130.704 82.469 130.892 81.2583C131.1 79.9152 131.188 78.6633 131.228 77.4131C131.268 76.8697 131.296 75.4902 131.309 73.6571C131.322 72.9539 131.349 72.7118 131.376 71.8916" stroke="black" stroke-width="4" stroke-linecap="round"/>
<path d="M132.188 71.9254C132.459 71.9254 132.734 71.9118 133.846 71.7542C136.637 71.3366 138.763 71.0272 139.22 70.9789C139.42 70.9579 139.556 70.9442 140.023 70.8887" stroke="black" stroke-width="4" stroke-linecap="round"/>
<path d="M88.8203 108.059L86.1836 105.48L100.422 91.3008H64.7969V87.6094H100.422L86.1836 73.3711L88.8203 70.793L107.395 89.4258L88.8203 108.059Z" fill="black"/>
</svg>

